<?xml version="1.0" standalone="no"?>
<!DOCTYPE svg PUBLIC "-//W3C//DTD SVG 20010904//EN"
 "http://www.w3.org/TR/2001/REC-SVG-20010904/DTD/svg10.dtd">
<svg version="1.0" xmlns="http://www.w3.org/2000/svg"
 width="512.000000pt" height="512.000000pt" viewBox="0 0 512.000000 512.000000"
 preserveAspectRatio="xMidYMid meet">

<g transform="translate(0.000000,512.000000) scale(0.100000,-0.100000)"
fill="#000000" stroke="none">
<path d="M2026 5029 c-421 -61 -776 -376 -892 -790 -35 -126 -44 -351 -20
-482 60 -319 265 -602 548 -757 l51 -28 -44 -11 c-518 -132 -980 -475 -1259
-935 -119 -198 -218 -454 -261 -676 -30 -161 -31 -216 0 -241 23 -19 59 -19
1430 -19 l1406 -1 35 -52 c29 -43 49 -59 117 -94 l81 -41 -114 -245 c-66 -142
-114 -258 -114 -275 0 -18 11 -43 26 -61 31 -38 61 -39 210 -12 l102 18 62
-109 c64 -112 92 -138 144 -138 49 0 80 48 191 288 70 151 115 237 129 245 27
15 135 15 161 0 13 -7 61 -97 129 -245 111 -241 143 -288 192 -288 51 0 78 26
142 138 l63 109 97 -18 c143 -27 177 -25 213 10 19 20 29 40 29 60 0 18 -48
133 -115 277 -63 136 -114 248 -112 249 1 1 31 15 67 32 79 36 125 81 158 152
24 52 25 59 17 170 -12 175 -13 172 46 293 49 102 54 119 54 178 -1 102 -16
131 -130 250 l-102 106 -23 94 c-54 234 -122 294 -351 310 -129 9 -129 9 -231
87 -84 64 -152 93 -219 93 -80 0 -128 -20 -236 -100 -52 -38 -105 -70 -118
-70 -12 0 -56 28 -101 64 -220 178 -517 329 -782 396 l-43 11 92 58 c341 214
540 592 516 981 -40 641 -611 1111 -1241 1019z m386 -178 c326 -85 580 -339
669 -671 32 -119 32 -337 0 -455 -88 -326 -332 -573 -658 -667 -68 -20 -100
-23 -248 -23 -159 1 -175 3 -255 29 -271 90 -459 253 -574 497 -70 148 -80
198 -81 389 0 127 4 180 17 228 100 360 378 618 741 688 99 19 289 11 389 -15z
m-39 -1997 c48 -3 87 -9 87 -13 0 -6 -78 -69 -267 -213 -8 -6 -56 26 -150 98
-76 59 -140 108 -142 110 -12 10 16 15 130 23 121 9 163 8 342 -5z m-502 -197
c101 -78 184 -148 184 -154 0 -7 -53 -76 -119 -153 l-118 -142 -17 29 c-34 56
-271 480 -277 496 -4 12 11 21 73 41 43 14 81 25 84 26 3 0 89 -64 190 -143z
m896 116 l83 -26 -44 -81 c-120 -219 -252 -447 -259 -447 -13 0 -249 283 -242
290 13 13 370 290 375 290 3 1 42 -11 87 -26z m-1216 -420 c101 -180 191 -335
201 -345 25 -25 80 -23 103 2 10 11 20 18 22 16 2 -2 -19 -115 -47 -251 -28
-136 -49 -258 -46 -270 3 -12 53 -74 111 -138 l106 -117 -854 0 -855 0 15 75
c91 486 389 932 811 1217 71 48 229 137 244 138 3 0 88 -147 189 -327z m1527
288 c43 -22 120 -67 171 -102 l94 -62 -45 -23 c-51 -26 -111 -89 -132 -138 -8
-18 -24 -78 -37 -132 l-22 -99 -95 -95 c-114 -114 -136 -156 -137 -255 0 -65
4 -79 54 -182 l54 -112 -5 -91 c-3 -50 -8 -93 -10 -96 -3 -2 -138 -3 -301 -2
l-297 3 105 118 c94 105 105 121 105 155 0 20 -22 141 -49 269 l-48 232 25
-19 c30 -24 79 -26 103 -4 10 9 100 164 201 345 101 180 184 328 186 329 1 0
37 -18 80 -39z m986 -194 c42 -32 93 -66 114 -77 44 -23 132 -40 208 -40 131
0 162 -27 194 -167 33 -143 51 -176 156 -278 122 -119 124 -127 55 -272 -67
-143 -72 -171 -59 -313 17 -173 11 -182 -157 -255 -109 -48 -149 -83 -219
-189 -30 -45 -63 -89 -74 -99 -35 -31 -89 -32 -183 -2 -132 42 -177 43 -310 5
-121 -34 -166 -35 -202 -3 -11 10 -45 56 -77 104 -75 111 -106 136 -226 188
-54 24 -110 54 -124 67 -25 24 -25 26 -25 202 l0 177 -54 112 c-72 149 -70
158 49 274 102 99 120 130 155 269 41 161 50 169 218 181 143 11 179 25 307
119 81 59 87 62 132 57 38 -3 61 -15 122 -60z m-1800 -157 c3 -8 39 -179 80
-379 l75 -363 -117 -130 -117 -129 -73 78 c-41 43 -94 102 -119 131 l-46 53
67 327 c37 180 72 347 77 372 6 30 24 62 51 94 l41 48 38 -44 c21 -23 40 -50
43 -58z m2343 -1672 c35 -77 62 -142 59 -145 -3 -3 -34 0 -69 6 -113 20 -133
16 -165 -27 -15 -22 -39 -60 -52 -85 -14 -26 -28 -47 -31 -47 -4 0 -98 192
-117 240 -2 4 16 12 40 18 76 20 133 64 190 151 62 93 44 107 145 -111z
m-1216 130 c67 -104 114 -143 211 -172 l37 -11 -56 -122 c-32 -68 -60 -123
-63 -123 -3 0 -18 24 -34 53 -16 28 -40 67 -53 85 -27 37 -52 40 -160 21 -35
-6 -67 -9 -70 -6 -6 7 139 326 148 327 4 0 22 -24 40 -52z"/>
<path d="M3810 2204 c-200 -42 -369 -191 -442 -390 -19 -49 -22 -80 -23 -189
0 -110 3 -140 23 -197 69 -198 243 -350 452 -394 283 -60 581 112 681 393 30
82 37 246 15 333 -79 315 -392 512 -706 444z m212 -155 c134 -28 248 -118 307
-243 64 -133 52 -299 -29 -424 -66 -102 -174 -172 -299 -194 -185 -32 -380 73
-464 249 -30 64 -32 74 -32 183 0 108 2 119 32 182 89 187 287 288 485 247z"/>
</g>
</svg>
