<?xml version="1.0" standalone="no"?>
<!DOCTYPE svg PUBLIC "-//W3C//DTD SVG 20010904//EN"
 "http://www.w3.org/TR/2001/REC-SVG-20010904/DTD/svg10.dtd">
<svg version="1.0" xmlns="http://www.w3.org/2000/svg"
 width="512.000000pt" height="512.000000pt" viewBox="0 0 512.000000 512.000000"
 preserveAspectRatio="xMidYMid meet">

<g transform="translate(0.000000,512.000000) scale(0.100000,-0.100000)"
fill="#000000" stroke="none">
<path d="M2552 5103 c-58 -28 -78 -65 -147 -273 -37 -110 -70 -200 -73 -200
-4 0 -106 -14 -227 -31 -161 -23 -231 -37 -260 -53 -72 -38 -106 -147 -71
-229 24 -58 65 -82 248 -142 95 -32 176 -60 180 -64 3 -3 -27 -85 -68 -181
-41 -96 -79 -191 -84 -210 -28 -105 75 -212 188 -195 36 5 71 29 218 146 95
76 178 139 184 139 6 0 89 -63 185 -139 183 -147 209 -160 282 -146 48 9 108
68 122 121 14 52 6 76 -88 294 -39 90 -68 167 -63 171 4 3 85 32 180 64 101
33 185 67 201 81 63 52 79 145 39 224 -36 71 -69 83 -323 119 -121 17 -223 31
-227 31 -3 0 -36 90 -73 200 -70 211 -93 252 -152 276 -44 19 -131 17 -171 -3z
m185 -368 c44 -135 80 -226 92 -236 12 -10 105 -28 275 -54 208 -31 256 -41
254 -53 -2 -10 -79 -41 -223 -89 -226 -75 -255 -91 -255 -138 0 -12 43 -124
96 -249 53 -125 94 -229 92 -231 -1 -2 -92 68 -202 156 -148 119 -205 159
-226 159 -20 0 -76 -39 -216 -151 -104 -82 -195 -158 -201 -166 -33 -43 -7 33
82 240 52 122 95 231 95 242 0 47 -25 61 -255 140 -138 48 -225 82 -225 90 0
16 5 17 275 55 121 17 230 35 243 40 27 12 28 15 117 273 90 263 85 263 182
-28z"/>
<path d="M1205 4386 c-69 -32 -84 -62 -118 -229 l-32 -156 -197 -3 c-215 -3
-223 -5 -271 -70 -45 -60 -27 -195 32 -237 15 -11 90 -45 168 -76 l142 -57
-80 -161 c-74 -149 -80 -166 -76 -210 7 -79 62 -136 139 -144 64 -7 94 12 237
149 68 65 127 118 131 118 4 0 63 -53 131 -118 143 -137 173 -156 237 -149 77
8 132 65 139 144 4 44 -2 61 -76 210 l-80 161 142 57 c78 31 153 65 168 76 59
42 77 177 32 237 -48 65 -56 67 -273 70 -177 3 -200 5 -204 20 -3 9 -15 75
-27 146 -23 134 -40 171 -91 209 -35 26 -130 33 -173 13z m117 -306 c35 -197
35 -197 58 -220 19 -19 34 -20 240 -20 176 0 220 -3 220 -13 0 -8 -75 -43
-186 -87 -188 -75 -214 -92 -214 -137 0 -13 41 -105 91 -205 l91 -182 -59 51
c-32 29 -94 88 -138 133 -91 93 -125 115 -164 105 -15 -4 -88 -68 -173 -153
-82 -80 -148 -143 -148 -139 0 4 41 88 90 187 50 99 90 190 90 203 0 45 -26
62 -214 137 -111 44 -186 79 -186 87 0 10 43 13 215 13 211 0 216 1 238 23 18
17 29 59 57 200 44 231 54 233 92 17z"/>
<path d="M3925 4386 c-69 -32 -84 -62 -118 -229 l-32 -156 -197 -3 c-215 -3
-223 -5 -271 -70 -45 -60 -27 -195 32 -237 15 -11 90 -45 168 -76 l142 -57
-80 -161 c-74 -149 -80 -166 -76 -210 7 -79 62 -136 139 -144 64 -7 94 12 237
149 68 65 127 118 131 118 4 0 63 -53 131 -118 143 -137 173 -156 237 -149 77
8 132 65 139 144 4 44 -2 61 -76 210 l-80 161 142 57 c78 31 153 65 168 76 59
42 77 177 32 237 -48 65 -56 67 -273 70 -177 3 -200 5 -204 20 -3 9 -15 75
-27 146 -23 134 -40 171 -91 209 -35 26 -130 33 -173 13z m117 -306 c35 -197
35 -197 58 -220 19 -19 34 -20 240 -20 176 0 220 -3 220 -13 0 -8 -75 -43
-186 -87 -188 -75 -214 -92 -214 -137 0 -13 41 -105 91 -205 l91 -182 -59 51
c-32 29 -94 88 -138 133 -91 93 -125 115 -164 105 -15 -4 -88 -68 -173 -153
-82 -80 -148 -143 -148 -139 0 4 41 88 90 187 50 99 90 190 90 203 0 45 -26
62 -214 137 -111 44 -186 79 -186 87 0 10 43 13 215 13 211 0 216 1 238 23 18
17 29 59 57 200 44 231 54 233 92 17z"/>
<path d="M2510 3505 c-80 -23 -135 -59 -180 -119 -57 -75 -88 -150 -175 -421
-89 -275 -107 -320 -166 -407 -87 -128 -216 -242 -379 -335 -86 -49 -222 -113
-240 -113 -6 0 -10 48 -10 120 0 115 -1 122 -25 145 l-24 25 -431 0 -431 0
-24 -25 -25 -24 0 -1151 0 -1151 25 -24 24 -25 431 0 431 0 24 25 c21 20 25
34 25 79 l0 56 1003 2 1002 3 51 27 c76 40 107 70 145 140 31 57 34 70 34 148
0 77 -3 91 -32 144 l-33 59 44 41 c24 23 56 66 72 96 24 47 28 67 28 140 1 77
-2 90 -31 144 l-33 59 44 41 c24 23 56 66 72 96 24 47 28 67 28 140 1 77 -2
90 -31 144 l-33 59 44 41 c24 23 56 66 72 96 24 48 28 67 28 140 1 78 -2 90
-33 148 -37 69 -79 109 -151 144 -44 23 -53 23 -447 26 -222 2 -403 5 -403 8
0 2 20 41 44 87 25 45 60 125 78 177 l33 95 -1 220 c0 236 -11 331 -50 457
-30 96 -77 165 -138 202 -39 25 -59 30 -124 33 -48 2 -97 -3 -132 -12z m182
-165 c62 -48 96 -204 105 -475 4 -147 2 -193 -11 -249 -22 -92 -82 -219 -161
-337 -69 -103 -77 -132 -46 -170 l19 -24 490 -5 c476 -5 491 -6 518 -26 53
-39 69 -71 69 -134 0 -63 -16 -95 -69 -134 -25 -19 -45 -21 -238 -26 -206 -5
-210 -5 -229 -29 -24 -30 -24 -72 0 -102 18 -23 25 -24 189 -29 152 -4 174 -7
198 -26 53 -39 69 -71 69 -134 0 -63 -16 -95 -69 -134 -24 -19 -46 -22 -198
-26 -164 -5 -171 -6 -189 -29 -24 -30 -24 -72 0 -102 18 -22 28 -24 149 -29
111 -4 135 -8 158 -26 53 -39 69 -71 69 -134 0 -63 -16 -95 -69 -134 -23 -18
-47 -22 -158 -26 -121 -5 -131 -7 -149 -29 -24 -30 -24 -72 0 -102 17 -21 30
-25 110 -29 97 -6 124 -18 165 -74 16 -20 21 -42 21 -86 0 -63 -16 -95 -69
-134 -27 -21 -35 -21 -1017 -24 l-989 -2 0 809 0 809 38 13 c126 41 336 152
452 238 90 68 218 201 276 287 68 102 96 170 179 436 72 229 127 359 168 396
55 51 173 69 219 32z m-1492 -2140 l0 -1040 -320 0 -320 0 0 1040 0 1040 320
0 320 0 0 -1040z"/>
</g>
</svg>
